<svg width="25" height="17" viewBox="0 0 25 17" fill="none" xmlns="http://www.w3.org/2000/svg">
<path fill-rule="evenodd" clip-rule="evenodd" d="M22.8351 1.77913C23.1953 2.14229 23.455 2.59418 23.588 3.08986C24.3543 6.19866 24.1772 11.1086 23.6029 14.3374C23.4698 14.8331 23.2102 15.285 22.85 15.6481C22.4897 16.0112 22.0414 16.2728 21.5496 16.4069C19.7492 16.9018 12.5031 16.9018 12.5031 16.9018C12.5031 16.9018 5.25703 16.9018 3.4567 16.4069C2.96492 16.2728 2.51657 16.0112 2.15632 15.6481C1.79606 15.285 1.53647 14.8331 1.4034 14.3374C0.632665 11.2421 0.843944 6.32916 1.38852 3.10487C1.52159 2.60919 1.78118 2.15729 2.14144 1.79414C2.50169 1.43106 2.95003 1.16941 3.44182 1.03528C5.24219 0.540391 12.4883 0.525391 12.4883 0.525391C12.4883 0.525391 19.7343 0.52539 21.5347 1.02028C22.0265 1.15441 22.4748 1.41605 22.8351 1.77913ZM15.9545 8.71376L10.4957 12.1255V5.30198L15.9545 8.71376Z" fill="white"/>
</svg>
